	<svg viewBox="0 0 512 513.5" height="512" width="513.5" xmlns="http://www.w3.org/2000/svg">      
	  <path d="M133.26,551.61c0,0 -26.46,-117.35 85.35,-117.35c43.83,0 95.32,23.05 125.61,-57.95c16.83,-45 82.32,-73.17 138.61,5.63c52.26,73.16 112.21,169.67 112.21,169.67H133.26z"
	      fill="#F2F2F2"/>
	  <path d="M174.32,551.61c0,0 -33.84,-103.63 65.75,-103.17c52.21,0.24 72.35,32.31 112.64,-52.86c21.56,-45.57 82.84,-64.62 132.98,5.36c46.55,64.97 99.95,150.67 99.95,150.67H174.32z"
	      fill="#E6E6E6"/>
	  <path d="M186.91,551.61c0,0 -33.46,-93.79 61.57,-93.39c49.82,0.21 69.03,27.59 107.48,-45.13c20.57,-38.91 79.04,-55.17 126.89,4.58c44.42,55.47 99.68,133.95 99.68,133.95H186.91z"
	      fill="#F20268"/>
	  <path d="M239.3,553.58c0,0 -28.27,-85.29 49.88,-74.49c26.43,3.65 45.76,23.17 92.35,-21.39c36,-34.43 57.39,-29.74 101.74,6.26s73.61,89.02 73.61,89.02L239.3,553.58z"
	      fill="#D30065"/>
	</svg>
