	<svg viewBox="0 0 512 513.5" height="512" width="513.5" xmlns="http://www.w3.org/2000/svg">
		<path d="M244.17,-6.01c0,0 -26.12,7.34 -43.83,39.52c-17.14,31.16 -39.92,65.84 -83.54,60.26c-25.02,-3.2 -46.78,-26.38 -62.64,-49.59C37.04,19.1 26.8,-6.01 26.8,-6.01H244.17z"
	      fill="#F2F2F2"/>
	  	<path d="M212.87,-10.12c0,0 -19.27,26.32 -32.09,43.63c-19.81,26.76 -56.74,56.21 -111.91,9c-20.35,-17.41 -49.3,-70.43 -49.3,-70.43h202.11L212.87,-10.12z"
	      fill="#E6E6E6"/>
	  <path d="M196.63,-16.77c0,0 -14.09,32.38 -31.11,47.35c-15.37,13.52 -36.38,26.4 -77.09,6.65S31.7,-24.79 31.7,-24.79h166.5L196.63,-16.77z"
	      fill="#D30065"/>
	</svg>